<svg xmlns="http://www.w3.org/2000/svg" xmlns:xlink="http://www.w3.org/1999/xlink" aria-hidden="true" focusable="false" width="1em" height="1em" style="-ms-transform: rotate(360deg); -webkit-transform: rotate(360deg); transform: rotate(360deg);" preserveAspectRatio="xMidYMid meet" viewBox="0 0 1024 1024">
  <path d="M512 0Q373 0 255 68.5T68.5 255T0 512t68.5 257T255 955.5t257 68.5t257-68.5T955.5 769t68.5-257t-68.5-257T769 68.5T512 0zm0 961q-73 0-141.5-22.5T247 874t-96.5-97t-64-123.5T64 512q0-91 35.5-174T195 195t143-95.5T512 64t174 35.5T829 195t95.5 143T960 512t-35.5 174T829 829.5t-143 96T512 961zm181-630q-9-9-22.5-9t-22.5 9L512 467L376 331q-9-9-22.5-9t-22.5 9t-9 22.5t9 22.5l136 136l-136 136q-6 6-8.5 14t0 16.5T331 693q9 9 22.5 9t22.5-9l136-136l136 136q9 9 22.5 9t22.5-9q6-6 8.5-14.5t0-16.5t-8.5-14L557 512l136-136q9-9 9-22.5t-9-22.5z" fill="black"/>
</svg>