<svg xmlns="http://www.w3.org/2000/svg" width="111.733" height="89.828" viewBox="0 0 111.733 89.828"><g transform="translate(0 -50.188)"><path d="M87.182,126.922H11.457a1.637,1.637,0,1,0,0,3.273H87.182a1.637,1.637,0,1,0,0-3.273Zm0-6.547H11.457a1.637,1.637,0,1,0,0,3.273H87.182a1.637,1.637,0,1,0,0-3.273ZM97,99.044a1.637,1.637,0,0,0-1.637,1.637v31.152a4.916,4.916,0,0,1-4.91,4.91H8.184a4.916,4.916,0,0,1-4.91-4.91V79.54a4.916,4.916,0,0,1,4.91-4.91H59.324a1.637,1.637,0,1,0,0-3.273H8.184A8.193,8.193,0,0,0,0,79.54v52.293a8.193,8.193,0,0,0,8.184,8.184H90.456a8.193,8.193,0,0,0,8.184-8.184V100.681A1.637,1.637,0,0,0,97,99.044ZM87.984,50.188a23.751,23.751,0,0,0-22.62,30.988H54.012a1.637,1.637,0,1,0,0,3.273H66.692a23.788,23.788,0,0,0,1.964,3.273H54.012a1.637,1.637,0,1,0,0,3.273H71.479a23.744,23.744,0,1,0,16.5-40.809Zm0,44.225A20.476,20.476,0,1,1,108.46,73.937,20.5,20.5,0,0,1,87.984,94.413Zm-72.2,22.38A9.2,9.2,0,0,0,18,117.1H37.563a8.289,8.289,0,0,0,8.184-8.184V89.36a8.193,8.193,0,0,0-8.184-8.184H18A8.193,8.193,0,0,0,9.82,89.36v19.559A8.2,8.2,0,0,0,15.781,116.793Zm2.418-2.964a10.051,10.051,0,0,1,19.167,0Zm3.314-16.563a6.269,6.269,0,1,1,6.269,6.269A6.276,6.276,0,0,1,21.514,97.266Zm-8.42-7.906A4.916,4.916,0,0,1,18,84.45H37.563a4.916,4.916,0,0,1,4.91,4.91v19.559a4.906,4.906,0,0,1-1.981,3.939,13.42,13.42,0,0,0-6.941-8,9.542,9.542,0,1,0-11.536,0,13.421,13.421,0,0,0-6.94,8,4.906,4.906,0,0,1-1.981-3.939ZM96.151,68.192,84.8,79.546a.407.407,0,0,1-.575,0L79.816,75.14A1.637,1.637,0,0,0,77.5,77.455l4.406,4.406a3.684,3.684,0,0,0,5.2,0L98.466,70.506a1.637,1.637,0,0,0-2.315-2.315Zm-8.969,39.09H54.012a1.637,1.637,0,1,0,0,3.273H87.182a1.637,1.637,0,1,0,0-3.273Zm0,6.547H54.012a1.637,1.637,0,1,0,0,3.273H87.182a1.637,1.637,0,1,0,0-3.273Z"/></g></svg>